<svg width="22" height="20" viewBox="0 0 22 20" fill="none" xmlns="http://www.w3.org/2000/svg">
<g id="Paperclip">
<g id="Paperclip_2">
<path id="Vector" d="M13.6421 6.24951L6.90588 12.866C6.66326 13.1004 6.52695 13.4184 6.52695 13.7499C6.52695 14.0814 6.66326 14.3994 6.90588 14.6338C7.14851 14.8682 7.47758 14.9999 7.8207 14.9999C8.16383 14.9999 8.4929 14.8682 8.73552 14.6338L16.7655 6.76728C17.0058 6.53513 17.1964 6.25953 17.3264 5.95622C17.4564 5.65291 17.5234 5.32782 17.5234 4.99951C17.5234 4.67121 17.4564 4.34612 17.3264 4.0428C17.1964 3.73949 17.0058 3.46389 16.7655 3.23174C16.5252 2.9996 16.24 2.81545 15.926 2.68981C15.6121 2.56418 15.2756 2.49951 14.9359 2.49951C14.5961 2.49951 14.2596 2.56418 13.9457 2.68981C13.6317 2.81545 13.3465 2.9996 13.1062 3.23174L5.07624 11.0982C4.34837 11.8015 3.93945 12.7553 3.93945 13.7499C3.93945 14.7445 4.34837 15.6983 5.07624 16.4015C5.80412 17.1048 6.79133 17.4999 7.8207 17.4999C8.85008 17.4999 9.83729 17.1048 10.5652 16.4015L17.1999 9.99951" stroke="#ADADAD" stroke-linecap="round" stroke-linejoin="round"/>
</g>
</g>
</svg>
