<svg width="182" height="185" viewBox="0 0 182 185" fill="none" xmlns="http://www.w3.org/2000/svg">
<g id="objects" clip-path="url(#clip0_720_2085)">
<path id="Vector" d="M145.978 102.365C145.978 119.327 139.381 135.272 127.399 147.267C115.417 159.261 99.4896 165.866 82.5457 165.866C65.6017 165.866 49.6741 159.261 37.6925 147.267C25.7109 135.272 19.1136 119.327 19.1136 102.365C19.1136 85.4025 25.7109 69.4576 37.6925 57.4629C49.6741 45.4683 65.6017 38.8638 82.5457 38.8638H97.6404V19.7295H82.5457C71.4059 19.7295 60.5952 21.9148 50.4121 26.2278C40.5824 30.3904 31.7536 36.3468 24.1776 43.9333C16.5993 51.5198 10.6493 60.356 6.49124 70.1963C2.18289 80.3905 0 91.2129 0 102.365C0 113.517 2.18289 124.339 6.49124 134.533C10.6493 144.374 16.5993 153.212 24.1776 160.796C31.7558 168.383 40.5824 174.339 50.4121 178.502C60.5952 182.813 71.4059 185 82.5457 185C93.6855 185 104.496 182.815 114.679 178.502C124.509 174.339 133.338 168.383 140.914 160.796C148.492 153.21 154.442 144.374 158.6 134.533C162.906 124.339 165.091 113.517 165.091 102.365V89.658H145.978V102.365Z" fill="#136B79"/>
<path id="Vector_2" d="M87.3096 102.396L69.8133 76.1304L44.1621 101.809L80.5908 126.131L89.3578 131.983L95.0072 125.091L182 18.9242L156.689 0L87.3096 102.396Z" fill="#FFDF58"/>
</g>
<defs>
<clipPath id="clip0_720_2085">
<rect width="182" height="185" fill="white"/>
</clipPath>
</defs>
</svg>
