<svg width="24" height="24" viewBox="0 0 24 24" fill="none" xmlns="http://www.w3.org/2000/svg">
<g id="filter_alt_FILL0_wght400_GRAD0_opsz48 (1) 1">
<path id="Vector" d="M13 20C13.2833 20 13.5208 19.9042 13.7125 19.7125C13.9042 19.5208 14 19.2833 14 19V13L19.975 5.375C20.2083 5.09167 20.2417 4.79167 20.075 4.475C19.9083 4.15833 19.65 4 19.3 4H4.7C4.35 4 4.09167 4.15833 3.925 4.475C3.75834 4.79167 3.79167 5.09167 4.025 5.375L10 13V19C10 19.2833 10.0958 19.5208 10.2875 19.7125C10.4792 19.9042 10.7167 20 11 20H13ZM12 13.1L6 5.5H18L12 13.1Z" fill="white"/>
</g>
</svg>
