<svg width="24" height="24" viewBox="0 0 24 24" fill="none" xmlns="http://www.w3.org/2000/svg">
<g clip-path="url(#clip0_2153_1805)">
<path fill-rule="evenodd" clip-rule="evenodd" d="M2.625 0.75C2.28679 0.75 1.99042 0.976365 1.90143 1.30266L0.776426 5.42767C0.758888 5.49199 0.75 5.55832 0.75 5.625C0.75 7.48898 2.26104 9 4.125 9C5.18524 9 6.13125 8.51111 6.75 7.74649C7.36875 8.51111 8.31476 9 9.375 9C10.4352 9 11.3813 8.51111 12 7.74649C12.6187 8.51111 13.5648 9 14.625 9C15.6852 9 16.6313 8.51111 17.25 7.74649C17.8687 8.51111 18.8148 9 19.875 9C21.739 9 23.25 7.48898 23.25 5.625C23.25 5.55832 23.2411 5.49199 23.2236 5.42767L22.0986 1.30266C22.0096 0.976365 21.7132 0.75 21.375 0.75H2.625ZM9.375 7.5C8.33948 7.5 7.5 6.66052 7.5 5.625C7.5 5.21077 7.16423 4.875 6.75 4.875C6.33577 4.875 6 5.21077 6 5.625C6 6.66052 5.16052 7.5 4.125 7.5C3.1204 7.5 2.30033 6.70995 2.25223 5.71725L3.19785 2.25H20.8022L21.7478 5.71725C21.6997 6.70995 20.8796 7.5 19.875 7.5C18.8395 7.5 18 6.66052 18 5.625C18 5.21077 17.6642 4.875 17.25 4.875C16.8358 4.875 16.5 5.21077 16.5 5.625C16.5 6.66052 15.6605 7.5 14.625 7.5C13.5895 7.5 12.75 6.66052 12.75 5.625C12.75 5.21077 12.4142 4.875 12 4.875C11.5858 4.875 11.25 5.21077 11.25 5.625C11.25 6.66052 10.4105 7.5 9.375 7.5Z" fill="#818181"/>
<path d="M3.375 11.25C3.375 10.8358 3.03921 10.5 2.625 10.5C2.21079 10.5 1.875 10.8358 1.875 11.25V19.5C1.875 21.571 3.55393 23.25 5.625 23.25H18.375C20.4461 23.25 22.125 21.5711 22.125 19.5V11.25C22.125 10.8358 21.7892 10.5 21.375 10.5C20.9608 10.5 20.625 10.8358 20.625 11.25V19.5C20.625 20.7426 19.6176 21.75 18.375 21.75H5.625C4.38236 21.75 3.375 20.7426 3.375 19.5V11.25Z" fill="#818181"/>
<path d="M10.125 16.875C10.125 16.4608 10.4608 16.125 10.875 16.125H13.125C13.5392 16.125 13.875 16.4608 13.875 16.875C13.875 17.2892 13.5392 17.625 13.125 17.625H10.875C10.4608 17.625 10.125 17.2892 10.125 16.875Z" fill="#818181"/>
<path fill-rule="evenodd" clip-rule="evenodd" d="M8.70764 13.8803C7.79822 13.9562 7.15416 14.8339 7.38036 15.7388L7.91732 17.8866C8.20945 19.0552 9.25941 19.875 10.4639 19.875H13.536C14.7406 19.875 15.7905 19.0552 16.0826 17.8866L16.6196 15.7388C16.8458 14.8339 16.2017 13.9562 15.2923 13.8803L14.5865 11.7628C14.4555 11.3699 14.0308 11.1575 13.6378 11.2884C13.2449 11.4194 13.0325 11.8442 13.1635 12.2372L13.7094 13.875H10.2905L10.8365 12.2372C10.9675 11.8442 10.7551 11.4194 10.3622 11.2884C9.96921 11.1575 9.54445 11.3699 9.41346 11.7628L8.70764 13.8803ZM9.37255 17.5228L8.83559 15.375H15.1644L14.6274 17.5228C14.5022 18.0236 14.0522 18.375 13.536 18.375H10.4639C9.94772 18.375 9.49772 18.0236 9.37255 17.5228Z" fill="#818181"/>
</g>
<defs>
<clipPath id="clip0_2153_1805">
<rect width="24" height="24" fill="white"/>
</clipPath>
</defs>
</svg>
