<svg width="32" height="25" viewBox="0 0 32 25" fill="none" xmlns="http://www.w3.org/2000/svg">
<g id="Group">
<path id="Vector" d="M5.81755 24.8757V23.221C5.81755 22.5867 5.43338 22.173 4.77481 22.173C4.44552 22.173 4.08879 22.2833 3.84183 22.6418C3.64974 22.3385 3.37534 22.173 2.96373 22.173C2.68932 22.173 2.41492 22.2557 2.19539 22.5591V22.2282H1.61914V24.8757H2.19539V23.414C2.19539 22.9452 2.44236 22.7246 2.82653 22.7246C3.2107 22.7246 3.40278 22.9728 3.40278 23.414V24.8757H3.97903V23.414C3.97903 22.9452 4.25344 22.7246 4.61017 22.7246C4.99433 22.7246 5.18642 22.9728 5.18642 23.414V24.8757H5.81755ZM14.3516 22.2282H13.4186V21.4284H12.8423V22.2282H12.321V22.7521H12.8423V23.9656C12.8423 24.5723 13.0893 24.9308 13.7479 24.9308C13.9948 24.9308 14.2693 24.8481 14.4613 24.7378L14.2967 24.2414C14.1321 24.3517 13.94 24.3793 13.8028 24.3793C13.5284 24.3793 13.4186 24.2138 13.4186 23.938V22.7521H14.3516V22.2282ZM19.236 22.173C18.9067 22.173 18.6872 22.3385 18.55 22.5591V22.2282H17.9737V24.8757H18.55V23.3865C18.55 22.9452 18.7421 22.697 19.0988 22.697C19.2086 22.697 19.3458 22.7246 19.4555 22.7521L19.6202 22.2006C19.5104 22.173 19.3458 22.173 19.236 22.173ZM11.8545 22.4488C11.5801 22.2557 11.1959 22.173 10.7843 22.173C10.1257 22.173 9.68667 22.5039 9.68667 23.0279C9.68667 23.4692 10.016 23.7174 10.5922 23.8001L10.8666 23.8277C11.1685 23.8829 11.3331 23.9656 11.3331 24.1035C11.3331 24.2965 11.1136 24.4344 10.7294 24.4344C10.3452 24.4344 10.0434 24.2965 9.85132 24.1587L9.57691 24.5999C9.87876 24.8205 10.2904 24.9308 10.702 24.9308C11.4703 24.9308 11.9094 24.5723 11.9094 24.0759C11.9094 23.6071 11.5526 23.3589 11.0038 23.2761L10.7294 23.2486C10.4825 23.221 10.2904 23.1658 10.2904 23.0004C10.2904 22.8073 10.4825 22.697 10.7843 22.697C11.1136 22.697 11.4429 22.8349 11.6075 22.9176L11.8545 22.4488ZM27.1663 22.173C26.837 22.173 26.6175 22.3385 26.4803 22.5591V22.2282H25.9041V24.8757H26.4803V23.3865C26.4803 22.9452 26.6724 22.697 27.0291 22.697C27.1389 22.697 27.2761 22.7246 27.3859 22.7521L27.5505 22.2006C27.4407 22.173 27.2761 22.173 27.1663 22.173ZM19.8123 23.5519C19.8123 24.3517 20.3611 24.9308 21.2117 24.9308C21.5959 24.9308 21.8703 24.8481 22.1447 24.6275L21.8703 24.1587C21.6508 24.3241 21.4312 24.4069 21.1843 24.4069C20.7178 24.4069 20.3885 24.0759 20.3885 23.5519C20.3885 23.0555 20.7178 22.7246 21.1843 22.697C21.4312 22.697 21.6508 22.7797 21.8703 22.9452L22.1447 22.4764C21.8703 22.2557 21.5959 22.173 21.2117 22.173C20.3611 22.173 19.8123 22.7521 19.8123 23.5519ZM25.1357 23.5519V22.2282H24.5595V22.5591C24.3674 22.3109 24.093 22.173 23.7363 22.173C22.9954 22.173 22.4191 22.7521 22.4191 23.5519C22.4191 24.3517 22.9954 24.9308 23.7363 24.9308C24.1204 24.9308 24.3948 24.793 24.5595 24.5447V24.8757H25.1357V23.5519ZM23.0228 23.5519C23.0228 23.0831 23.3246 22.697 23.8186 22.697C24.2851 22.697 24.6144 23.0555 24.6144 23.5519C24.6144 24.0208 24.2851 24.4069 23.8186 24.4069C23.3246 24.3793 23.0228 24.0208 23.0228 23.5519ZM16.1352 22.173C15.3669 22.173 14.8181 22.7246 14.8181 23.5519C14.8181 24.3793 15.3669 24.9308 16.1627 24.9308C16.5468 24.9308 16.931 24.8205 17.2328 24.5723L16.9584 24.1587C16.7389 24.3241 16.4645 24.4344 16.1901 24.4344C15.8334 24.4344 15.4766 24.269 15.3943 23.8001H17.3426V23.5795C17.37 22.7246 16.8761 22.173 16.1352 22.173ZM16.1352 22.6694C16.4919 22.6694 16.7389 22.89 16.7938 23.3037H15.4218C15.4766 22.9452 15.7236 22.6694 16.1352 22.6694ZM30.4318 23.5519V21.1802H29.8555V22.5591C29.6634 22.3109 29.389 22.173 29.0323 22.173C28.2914 22.173 27.7151 22.7521 27.7151 23.5519C27.7151 24.3517 28.2914 24.9308 29.0323 24.9308C29.4165 24.9308 29.6909 24.793 29.8555 24.5447V24.8757H30.4318V23.5519ZM28.3188 23.5519C28.3188 23.0831 28.6207 22.697 29.1146 22.697C29.5811 22.697 29.9104 23.0555 29.9104 23.5519C29.9104 24.0208 29.5811 24.4069 29.1146 24.4069C28.6207 24.3793 28.3188 24.0208 28.3188 23.5519ZM9.05554 23.5519V22.2282H8.47929V22.5591C8.2872 22.3109 8.0128 22.173 7.65607 22.173C6.91518 22.173 6.33892 22.7521 6.33892 23.5519C6.33892 24.3517 6.91518 24.9308 7.65607 24.9308C8.04024 24.9308 8.31465 24.793 8.47929 24.5447V24.8757H9.05554V23.5519ZM6.91517 23.5519C6.91517 23.0831 7.21702 22.697 7.71095 22.697C8.17744 22.697 8.50673 23.0555 8.50673 23.5519C8.50673 24.0208 8.17744 24.4069 7.71095 24.4069C7.21702 24.3793 6.91517 24.0208 6.91517 23.5519Z" fill="black"/>
<path id="Vector_2" d="M20.3059 2.12354H11.6621V17.733H20.3059V2.12354Z" fill="#FF5F00"/>
<path id="Vector_3" d="M12.2111 9.92826C12.2111 6.75673 13.6929 3.94372 15.9704 2.12354C14.2965 0.799776 12.1836 0 9.87861 0C4.41794 0 0 4.44014 0 9.92826C0 15.4164 4.41794 19.8565 9.87861 19.8565C12.1836 19.8565 14.2965 19.0567 15.9704 17.733C13.6929 15.9404 12.2111 13.0998 12.2111 9.92826Z" fill="#EB001B"/>
<path id="Vector_4" d="M31.9682 9.92826C31.9682 15.4164 27.5503 19.8565 22.0896 19.8565C19.7846 19.8565 17.6717 19.0567 15.9978 17.733C18.3028 15.9128 19.7572 13.0998 19.7572 9.92826C19.7572 6.75673 18.2754 3.94372 15.9978 2.12354C17.6717 0.799776 19.7846 0 22.0896 0C27.5503 0 31.9682 4.46772 31.9682 9.92826Z" fill="#F79E1B"/>
</g>
</svg>
