<svg width="24" height="24" viewBox="0 0 24 24" fill="none" xmlns="http://www.w3.org/2000/svg">
<g clip-path="url(#clip0_2162_2640)">
<path d="M18.8426 12.5072C18.8426 12.4678 18.8032 12.4678 18.8032 12.4678C18.7638 12.4284 18.7244 12.4284 18.685 12.389C18.685 12.389 18.685 12.389 18.6456 12.389C18.6062 12.389 18.5669 12.3496 18.5275 12.3496H14.2335H5.9214C5.88201 12.3496 5.84261 12.3496 5.80322 12.389H5.76383C5.72443 12.389 5.68504 12.4284 5.68504 12.4678C5.64564 12.5072 5.64564 12.5072 5.60625 12.5466L3.71534 16.1708C3.63655 16.289 3.63655 16.4466 3.71534 16.5648C3.79413 16.6829 3.91231 16.7617 4.06989 16.7617H5.56686V21.8435C5.56686 22.0799 5.72443 22.2375 5.9608 22.2375H14.3123H18.5669C18.8032 22.2375 18.9608 22.0799 18.9608 21.8435V16.7223H20.8911C21.1275 16.7223 21.285 16.5648 21.285 16.3284C21.285 16.2102 21.2456 16.1314 21.1669 16.0526L18.8426 12.5072ZM6.15777 13.0981H13.6032L12.1063 15.9345H5.9214H4.70019L6.15777 13.0981ZM6.31534 16.7223H12.382C12.5396 16.7223 12.6578 16.6435 12.7366 16.5254L13.879 14.3193V21.4102H6.31534V16.7223ZM18.0941 21.4102H14.6275V14.0435L16.2032 16.5254C16.282 16.6435 16.4002 16.7223 16.5184 16.7223H18.0547V21.4102H18.0941ZM18.5275 15.9345C18.4881 15.9345 18.4881 15.9345 18.5275 15.9345H16.7941L14.982 13.0981H18.2911L20.1032 15.9345H18.5275Z" fill="#818181"/>
<path d="M9.66383 18.1401H7.30019C7.06383 18.1401 6.90625 18.2977 6.90625 18.5341V20.1492C6.90625 20.3856 7.06383 20.5432 7.30019 20.5432H9.66383C9.90019 20.5432 10.0578 20.3856 10.0578 20.1492V18.5341C10.0578 18.3371 9.8608 18.1401 9.66383 18.1401ZM9.26989 19.7553H7.69413V18.928H9.26989V19.7553Z" fill="#818181"/>
<path d="M16.1244 5.57367L15.3759 4.23427C15.3365 4.15549 15.2184 4.0767 15.1396 4.0373C15.0214 3.99791 14.9426 4.0373 14.8244 4.0767L14.1941 4.43124C13.879 4.15549 13.485 3.95852 13.0911 3.80094V3.13124C13.0911 2.89488 12.9335 2.7373 12.6971 2.7373H11.1608C10.9244 2.7373 10.7668 2.89488 10.7668 3.13124V3.84034C10.3729 3.99791 9.97896 4.19488 9.66381 4.47064L9.03351 4.11609C8.95472 4.0767 8.83654 4.0373 8.71835 4.0767C8.60017 4.11609 8.52138 4.15549 8.48199 4.27367L7.73351 5.61306C7.61532 5.81003 7.69411 6.0464 7.89108 6.16458L8.52138 6.51912C8.48199 6.71609 8.4426 6.95246 8.4426 7.14943C8.4426 7.3464 8.48199 7.58276 8.52138 7.77973L7.93048 8.13427C7.73351 8.25246 7.69411 8.48882 7.7729 8.68579L8.52138 10.0252C8.56078 10.104 8.67896 10.1828 8.75775 10.2222C8.79714 10.2222 8.83654 10.2222 8.87593 10.2222C8.95472 10.2222 8.99411 10.2222 9.0729 10.1828L9.7032 9.82821C10.0184 10.104 10.4123 10.3009 10.8062 10.4585V11.1676C10.8062 11.404 10.9638 11.5615 11.2002 11.5615H12.7365C12.9729 11.5615 13.1305 11.404 13.1305 11.1676V10.4585C13.5244 10.3009 13.9184 10.104 14.2335 9.82821L14.8638 10.1828C14.9426 10.2222 14.982 10.2222 15.0608 10.2222C15.1002 10.2222 15.1396 10.2222 15.179 10.2222C15.2971 10.1828 15.3759 10.1434 15.4153 10.0252L16.1638 8.68579C16.282 8.48882 16.2032 8.25246 16.0062 8.13427L15.3759 7.74033C15.4153 7.54337 15.4547 7.307 15.4547 7.11003C15.4547 6.91306 15.4153 6.6767 15.3759 6.47973L16.0062 6.12518C16.1638 6.007 16.2426 5.77064 16.1244 5.57367ZM14.9032 9.2373L14.3517 8.92215C14.3517 8.92215 14.3517 8.92215 14.3123 8.92215C14.2729 8.92215 14.2729 8.92215 14.2335 8.88276C14.1941 8.88276 14.1941 8.88276 14.1547 8.88276C14.1153 8.88276 14.1153 8.88276 14.0759 8.88276C14.0365 8.88276 14.0365 8.88276 13.9971 8.88276C13.9971 8.92215 13.9971 8.92215 13.9577 8.92215C13.9184 8.92215 13.9184 8.96155 13.879 8.96155C13.879 8.96155 13.879 8.96155 13.8396 8.96155C13.485 9.31609 13.0517 9.55246 12.579 9.67064C12.579 9.67064 12.579 9.67064 12.5396 9.67064C12.5002 9.67064 12.5002 9.71003 12.4608 9.71003C12.4214 9.71003 12.4214 9.74943 12.382 9.74943L12.3426 9.78882C12.3426 9.82821 12.3032 9.82821 12.3032 9.86761C12.3032 9.907 12.3032 9.907 12.2638 9.9464C12.2638 9.98579 12.2638 9.98579 12.2638 10.0252C12.2638 10.0252 12.2638 10.0252 12.2638 10.0646V10.6949H11.5153V10.104C11.5153 10.104 11.5153 10.104 11.5153 10.0646C11.5153 10.0252 11.5153 10.0252 11.5153 9.98579C11.5153 9.9464 11.5153 9.9464 11.4759 9.907C11.4759 9.86761 11.4365 9.86761 11.4365 9.82821C11.4365 9.78882 11.3971 9.78882 11.3971 9.78882C11.3971 9.78882 11.3577 9.74943 11.3184 9.74943C11.279 9.74943 11.279 9.71003 11.2396 9.71003C11.2396 9.71003 11.2396 9.71003 11.2002 9.71003C10.7274 9.59185 10.2941 9.35549 9.93957 9.00094C9.93957 9.00094 9.93957 9.00094 9.90017 9.00094C9.86078 9.00094 9.86078 8.96155 9.82138 8.96155C9.78199 8.96155 9.78199 8.92215 9.7426 8.92215C9.7032 8.92215 9.7032 8.92215 9.66381 8.92215C9.62441 8.92215 9.62441 8.92215 9.58502 8.92215C9.54563 8.92215 9.54563 8.92215 9.50623 8.92215C9.46684 8.92215 9.46684 8.92215 9.42744 8.96155C9.42744 8.96155 9.42744 8.96155 9.38805 8.96155L8.87593 9.2767L8.52138 8.6464L9.03351 8.33124C9.03351 8.33124 9.03351 8.33124 9.0729 8.33124C9.11229 8.33124 9.11229 8.29185 9.15169 8.29185L9.19108 8.25246C9.19108 8.21306 9.23048 8.21306 9.23048 8.17367C9.23048 8.13427 9.23048 8.13427 9.26987 8.09488C9.26987 8.05549 9.26987 8.05549 9.26987 8.01609C9.26987 7.9767 9.26987 7.9767 9.26987 7.9373C9.26987 7.9373 9.26987 7.9373 9.26987 7.89791C9.19108 7.66155 9.15169 7.42518 9.15169 7.18882C9.15169 6.95246 9.19108 6.71609 9.26987 6.47973C9.26987 6.47973 9.26987 6.47973 9.26987 6.44034C9.26987 6.40094 9.26987 6.40094 9.26987 6.36155C9.26987 6.32215 9.26987 6.32215 9.26987 6.28276C9.26987 6.24337 9.26987 6.24337 9.23048 6.20397C9.23048 6.16458 9.23048 6.16458 9.19108 6.12518C9.19108 6.08579 9.15169 6.08579 9.15169 6.08579C9.15169 6.08579 9.11229 6.0464 9.0729 6.0464C9.0729 6.0464 9.0729 6.0464 9.03351 6.0464L8.52138 5.73124L8.87593 5.10094L9.38805 5.41609C9.38805 5.41609 9.38805 5.41609 9.42744 5.41609C9.46684 5.41609 9.46684 5.41609 9.50623 5.45549C9.54563 5.45549 9.54563 5.45549 9.58502 5.45549C9.58502 5.45549 9.58502 5.45549 9.62441 5.45549H9.66381C9.7032 5.45549 9.7032 5.45549 9.7426 5.45549C9.78199 5.45549 9.78199 5.45549 9.82138 5.41609C9.86078 5.41609 9.86078 5.3767 9.90017 5.3767C9.90017 5.3767 9.90017 5.3767 9.93957 5.3767C10.2941 5.02215 10.7274 4.78579 11.2002 4.66761C11.2002 4.66761 11.2002 4.66761 11.2396 4.66761C11.279 4.66761 11.279 4.62821 11.3184 4.62821C11.3577 4.62821 11.3577 4.58882 11.3971 4.58882L11.4365 4.54943C11.4365 4.51003 11.4759 4.51003 11.4759 4.47064C11.4759 4.43124 11.4759 4.43124 11.5153 4.39185C11.5153 4.35246 11.5153 4.35246 11.5153 4.31306C11.5153 4.31306 11.5153 4.31306 11.5153 4.27367V3.52518H12.2638V4.15549C12.2638 4.15549 12.2638 4.15549 12.2638 4.19488C12.2638 4.23427 12.2638 4.23427 12.2638 4.27367C12.2638 4.31306 12.2638 4.31306 12.3032 4.35246C12.3032 4.39185 12.3426 4.39185 12.3426 4.43124C12.3426 4.47064 12.382 4.47064 12.382 4.47064C12.382 4.47064 12.4214 4.51003 12.4608 4.51003C12.5002 4.51003 12.5002 4.54943 12.5396 4.54943C12.5396 4.54943 12.5396 4.54943 12.579 4.54943C13.0517 4.66761 13.485 4.90397 13.8396 5.25852C13.8396 5.25852 13.8396 5.25852 13.879 5.25852C13.9184 5.25852 13.9184 5.29791 13.9577 5.29791C13.9971 5.29791 13.9971 5.3373 14.0365 5.3373C14.0759 5.3373 14.0759 5.3373 14.1153 5.3373H14.1547C14.1547 5.3373 14.1547 5.3373 14.1941 5.3373C14.2335 5.3373 14.2335 5.3373 14.2729 5.3373C14.3123 5.3373 14.3123 5.3373 14.3517 5.29791C14.3517 5.29791 14.3517 5.29791 14.3911 5.29791L14.9032 4.98276L15.2577 5.61306L14.7456 5.92821C14.7456 5.92821 14.7456 5.92821 14.7062 5.92821C14.6668 5.92821 14.6668 5.96761 14.6274 5.96761L14.5881 6.007C14.5881 6.0464 14.5487 6.0464 14.5487 6.08579C14.5487 6.12518 14.5487 6.12518 14.5093 6.16458C14.5093 6.20397 14.5093 6.20397 14.5093 6.24337C14.5093 6.28276 14.5093 6.28276 14.5093 6.32215C14.5093 6.32215 14.5093 6.32215 14.5093 6.36155C14.5881 6.59791 14.6274 6.83427 14.6274 7.07064C14.6274 7.307 14.5881 7.54337 14.5093 7.77973C14.5093 7.77973 14.5093 7.77973 14.5093 7.81912C14.5093 7.85852 14.5093 7.85852 14.5093 7.89791C14.5093 7.9373 14.5093 7.9373 14.5093 7.9767C14.5093 8.01609 14.5093 8.01609 14.5487 8.05549C14.5487 8.09488 14.5487 8.09488 14.5881 8.13427C14.5881 8.17367 14.6274 8.17367 14.6274 8.17367C14.6274 8.17367 14.6668 8.21306 14.7062 8.21306C14.7062 8.21306 14.7062 8.21306 14.7456 8.21306L15.2577 8.52821L14.9032 9.2373Z" fill="#818181"/>
<path d="M11.9487 5.29785C10.9245 5.29785 10.0972 6.12512 10.0972 7.14937C10.0972 8.17361 10.9245 9.00088 11.9487 9.00088C12.973 9.00088 13.8002 8.17361 13.8002 7.14937C13.8002 6.12512 12.973 5.29785 11.9487 5.29785ZM11.9487 8.17361C11.3578 8.17361 10.8851 7.70088 10.8851 7.10997C10.8851 6.51906 11.3578 6.04634 11.9487 6.04634C12.5396 6.04634 13.0123 6.51906 13.0123 7.10997C13.0123 7.70088 12.5396 8.17361 11.9487 8.17361Z" fill="#818181"/>
</g>
<defs>
<clipPath id="clip0_2162_2640">
<rect width="24" height="24" fill="white"/>
</clipPath>
</defs>
</svg>
