<svg width="24" height="24" viewBox="0 0 24 24" fill="none" xmlns="http://www.w3.org/2000/svg">
<g clip-path="url(#clip0_2162_2779)">
<path d="M15.4759 9.88515L15.4879 9.93037C15.5053 9.9984 15.5448 10.0587 15.6002 10.1019C15.6556 10.1451 15.7237 10.1687 15.7939 10.169H15.7952C15.8652 10.169 15.9333 10.1458 15.9887 10.1031C16.0442 10.0603 16.084 10.0004 16.1018 9.93268C16.3109 9.14018 16.7601 8.38977 17.1945 7.664C17.4309 7.26898 17.6754 6.86064 17.8793 6.4489C18.0651 6.09939 18.166 5.71101 18.1736 5.31526C18.1736 3.99641 17.1476 2.9086 15.8806 2.8767C15.8698 2.87559 15.8589 2.87502 15.848 2.875H15.7423C15.7314 2.87502 15.7205 2.87559 15.7097 2.8767C14.4427 2.9086 13.4167 3.99641 13.4167 5.31526C13.4243 5.71079 13.5251 6.09896 13.7107 6.44828C13.9151 6.86095 14.1596 7.26929 14.3961 7.66431C14.8204 8.37305 15.259 9.10579 15.4759 9.88515ZM14.0509 5.31526C14.0509 4.33181 14.8115 3.52211 15.7463 3.51034C15.7537 3.51019 15.7611 3.50988 15.7684 3.50926H15.8219C15.8293 3.50988 15.8367 3.51019 15.844 3.51034C16.7788 3.52211 17.5394 4.33181 17.5394 5.31526C17.5309 5.61303 17.4528 5.90467 17.3112 6.16677C17.1183 6.55652 16.8909 6.93621 16.6503 7.3382C16.3334 7.8441 16.0478 8.36899 15.7952 8.90991C15.5427 8.36912 15.2572 7.84438 14.9403 7.33866C14.6996 6.93652 14.4723 6.55668 14.2788 6.16615C14.1374 5.90422 14.0594 5.6128 14.0509 5.31526Z" fill="#818181"/>
<path d="M15.7951 6.36346C16.0147 6.36346 16.2293 6.29837 16.4118 6.1764C16.5943 6.05444 16.7366 5.88109 16.8206 5.67827C16.9046 5.47545 16.9266 5.25228 16.8838 5.03697C16.8409 4.82166 16.7352 4.62388 16.58 4.46865C16.4248 4.31342 16.227 4.20771 16.0117 4.16488C15.7964 4.12205 15.5732 4.14404 15.3704 4.22805C15.1676 4.31206 14.9942 4.45432 14.8722 4.63685C14.7503 4.81938 14.6852 5.03398 14.6852 5.25351C14.6855 5.54778 14.8026 5.8299 15.0107 6.03799C15.2187 6.24607 15.5009 6.36312 15.7951 6.36346ZM15.7951 4.77781C15.8892 4.77781 15.9812 4.80571 16.0594 4.85798C16.1376 4.91025 16.1986 4.98455 16.2346 5.07147C16.2706 5.15839 16.28 5.25404 16.2617 5.34631C16.2433 5.43859 16.198 5.52335 16.1315 5.58988C16.065 5.6564 15.9802 5.70171 15.8879 5.72006C15.7957 5.73842 15.7 5.729 15.6131 5.69299C15.5262 5.65699 15.4519 5.59602 15.3996 5.51779C15.3473 5.43956 15.3194 5.34759 15.3194 5.25351C15.3196 5.12739 15.3697 5.00647 15.4589 4.91729C15.5481 4.82811 15.669 4.77795 15.7951 4.77781Z" fill="#818181"/>
<path d="M9.60898 11.6298L9.62106 11.675C9.63845 11.743 9.67793 11.8034 9.7333 11.8466C9.78868 11.8897 9.85682 11.9133 9.92704 11.9136H9.92828C9.99831 11.9136 10.0664 11.8904 10.1219 11.8477C10.1773 11.8049 10.2171 11.745 10.235 11.6773C10.444 10.8848 10.8932 10.1344 11.3276 9.40863C11.564 9.01361 11.8085 8.60527 12.0125 8.19353C12.1983 7.84401 12.2991 7.45564 12.3067 7.05989C12.3067 5.74104 11.2807 4.65323 10.0138 4.62133C10.0029 4.62022 9.99204 4.61965 9.98116 4.61963H9.8754C9.86451 4.61965 9.85363 4.62022 9.8428 4.62133C8.57583 4.65323 7.5498 5.74104 7.5498 7.05989C7.55744 7.45542 7.65818 7.84359 7.84386 8.19291C8.04826 8.60558 8.29277 9.01392 8.52922 9.40894C8.95351 10.1177 9.39211 10.8504 9.60898 11.6298ZM8.18406 7.05989C8.18406 6.07644 8.9446 5.26674 9.87942 5.25497C9.88686 5.25481 9.89421 5.25451 9.90156 5.25389H9.95507C9.96242 5.25451 9.96977 5.25482 9.97713 5.25497C10.912 5.26674 11.6725 6.07644 11.6725 7.05989C11.664 7.35766 11.5859 7.6493 11.4443 7.9114C11.2514 8.30115 11.0241 8.68084 10.7834 9.08283C10.4665 9.58873 10.1809 10.1136 9.92834 10.6545C9.67586 10.1138 9.39035 9.58901 9.07343 9.08329C8.83271 8.68115 8.6054 8.30131 8.41191 7.91078C8.27051 7.64885 8.19248 7.35742 8.18406 7.05989Z" fill="#818181"/>
<path d="M9.92819 8.1076C10.1477 8.1076 10.3623 8.04251 10.5448 7.92054C10.7274 7.79858 10.8696 7.62523 10.9537 7.42241C11.0377 7.21959 11.0596 6.99642 11.0168 6.78111C10.974 6.5658 10.8683 6.36802 10.713 6.21279C10.5578 6.05756 10.36 5.95185 10.1447 5.90902C9.92942 5.8662 9.70625 5.88818 9.50343 5.97219C9.30061 6.0562 9.12726 6.19846 9.0053 6.38099C8.88334 6.56352 8.81824 6.77812 8.81824 6.99765C8.81858 7.29192 8.93563 7.57404 9.14371 7.78213C9.3518 7.99021 9.63392 8.10726 9.92819 8.1076ZM9.92819 6.52196C10.0223 6.52196 10.1142 6.54985 10.1925 6.60212C10.2707 6.65439 10.3317 6.72869 10.3677 6.81561C10.4037 6.90253 10.4131 6.99818 10.3947 7.09045C10.3764 7.18273 10.3311 7.26749 10.2646 7.33402C10.198 7.40054 10.1133 7.44585 10.021 7.4642C9.92872 7.48256 9.83307 7.47314 9.74615 7.43713C9.65923 7.40113 9.58494 7.34016 9.53267 7.26193C9.4804 7.1837 9.4525 7.09173 9.4525 6.99765C9.45263 6.87153 9.5028 6.75062 9.59198 6.66143C9.68116 6.57225 9.80207 6.52209 9.92819 6.52196Z" fill="#818181"/>
<path d="M17.0637 12.7061C17.0637 12.9257 17.1288 13.1403 17.2507 13.3228C17.3727 13.5053 17.546 13.6476 17.7489 13.7316C17.9517 13.8156 18.1748 13.8376 18.3902 13.7948C18.6055 13.7519 18.8032 13.6462 18.9585 13.491C19.1137 13.3358 19.2194 13.138 19.2622 12.9227C19.3051 12.7074 19.2831 12.4842 19.1991 12.2814C19.1151 12.0786 18.9728 11.9052 18.7903 11.7833C18.6077 11.6613 18.3931 11.5962 18.1736 11.5962C17.8793 11.5965 17.5972 11.7136 17.3891 11.9217C17.1811 12.1298 17.064 12.4119 17.0637 12.7061ZM18.6493 12.7061C18.6493 12.8002 18.6214 12.8922 18.5691 12.9704C18.5169 13.0487 18.4426 13.1096 18.3557 13.1456C18.2687 13.1816 18.1731 13.1911 18.0808 13.1727C17.9885 13.1543 17.9038 13.109 17.8372 13.0425C17.7707 12.976 17.7254 12.8912 17.7071 12.7989C17.6887 12.7067 17.6981 12.611 17.7341 12.5241C17.7701 12.4372 17.8311 12.3629 17.9093 12.3106C17.9876 12.2583 18.0795 12.2305 18.1736 12.2305C18.2997 12.2306 18.4206 12.2808 18.5098 12.3699C18.599 12.4591 18.6492 12.58 18.6493 12.7061Z" fill="#818181"/>
<path d="M5.0127 12.7061C5.0127 12.9257 5.07779 13.1403 5.19976 13.3228C5.32172 13.5053 5.49507 13.6476 5.69789 13.7316C5.90071 13.8156 6.12388 13.8376 6.33919 13.7948C6.5545 13.7519 6.75227 13.6462 6.9075 13.491C7.06273 13.3358 7.16845 13.138 7.21128 12.9227C7.2541 12.7074 7.23212 12.4842 7.14811 12.2814C7.0641 12.0786 6.92184 11.9052 6.73931 11.7833C6.55678 11.6613 6.34218 11.5962 6.12265 11.5962C5.82838 11.5965 5.54625 11.7136 5.33817 11.9217C5.13009 12.1298 5.01304 12.4119 5.0127 12.7061ZM6.59834 12.7061C6.59834 12.8002 6.57044 12.8922 6.51817 12.9704C6.4659 13.0487 6.39161 13.1096 6.30469 13.1456C6.21777 13.1816 6.12212 13.1911 6.02985 13.1727C5.93757 13.1543 5.85281 13.109 5.78628 13.0425C5.71976 12.976 5.67445 12.8912 5.65609 12.7989C5.63774 12.7067 5.64716 12.611 5.68316 12.5241C5.71917 12.4372 5.78014 12.3629 5.85837 12.3106C5.93659 12.2583 6.02857 12.2305 6.12265 12.2305C6.24877 12.2306 6.36968 12.2808 6.45886 12.3699C6.54804 12.4591 6.59821 12.58 6.59834 12.7061Z" fill="#818181"/>
<path d="M21.7549 13.7229C21.8145 13.7822 21.895 13.8154 21.979 13.8153C22.063 13.8152 22.1436 13.7818 22.203 13.7225C22.2624 13.6631 22.2958 13.5825 22.2958 13.4985C22.2959 13.4145 22.2627 13.3339 22.2034 13.2744L18.3978 9.46889C18.3684 9.43943 18.3334 9.41606 18.295 9.40012C18.2565 9.38418 18.2153 9.37598 18.1736 9.37598C18.132 9.37598 18.0907 9.38418 18.0523 9.40012C18.0138 9.41606 17.9788 9.43943 17.9494 9.46889L14.1438 13.2744C14.0844 13.3339 14.051 13.4146 14.051 13.4986C14.051 13.5827 14.0845 13.6634 14.1439 13.7228C14.2034 13.7823 14.284 13.8157 14.3681 13.8157C14.4522 13.8157 14.5328 13.7823 14.5923 13.7229L14.6852 13.63V16.8285H9.61111V13.63L9.70402 13.7229C9.76353 13.7822 9.84412 13.8154 9.92811 13.8153C10.0121 13.8153 10.0926 13.7819 10.152 13.7225C10.2114 13.6631 10.2448 13.5825 10.2449 13.4985C10.245 13.4145 10.2117 13.3339 10.1525 13.2744L6.34691 9.46889C6.31747 9.43943 6.28251 9.41607 6.24404 9.40013C6.20557 9.38418 6.16433 9.37598 6.12269 9.37598C6.08104 9.37598 6.03981 9.38418 6.00133 9.40013C5.96286 9.41607 5.92791 9.43943 5.89847 9.46889L2.09291 13.2744C2.03347 13.3339 2.00009 13.4146 2.00011 13.4986C2.00012 13.5827 2.03353 13.6634 2.09298 13.7228C2.15244 13.7823 2.23307 13.8157 2.31715 13.8157C2.40123 13.8157 2.48188 13.7823 2.54135 13.7229L2.63426 13.63V16.8285H2.31713C2.23302 16.8285 2.15236 16.8619 2.09289 16.9214C2.03341 16.9809 2 17.0615 2 17.1457C2 17.2298 2.03341 17.3104 2.09289 17.3699C2.15236 17.4294 2.23302 17.4628 2.31713 17.4628H21.9792C22.0633 17.4628 22.1439 17.4294 22.2034 17.3699C22.2629 17.3104 22.2963 17.2298 22.2963 17.1457C22.2963 17.0615 22.2629 16.9809 22.2034 16.9214C22.1439 16.8619 22.0633 16.8285 21.9792 16.8285H21.662V13.63L21.7549 13.7229ZM6.91551 16.8285H5.32986V15.8771C5.32996 15.7931 5.3634 15.7124 5.42285 15.653C5.4823 15.5935 5.56291 15.5601 5.64699 15.56H6.59838C6.68246 15.5601 6.76307 15.5935 6.82252 15.653C6.88197 15.7124 6.91541 15.7931 6.91551 15.8771V16.8285ZM8.97685 13.023V16.8285H7.54977V15.8771C7.54949 15.6249 7.44917 15.3831 7.27081 15.2047C7.09245 15.0263 6.85062 14.926 6.59838 14.9257H5.64699C5.39475 14.926 5.15292 15.0263 4.97456 15.2047C4.7962 15.3831 4.69588 15.6249 4.6956 15.8771V16.8285H3.26852V13.023C3.26852 13.0145 3.26667 13.0065 3.26602 12.9982L6.12268 10.1415L8.97935 12.9982C8.9787 13.0065 8.97685 13.0145 8.97685 13.023ZM18.9664 16.8285H17.3808V15.8771C17.3809 15.7931 17.4143 15.7124 17.4738 15.653C17.5332 15.5935 17.6138 15.5601 17.6979 15.56H18.6493C18.7334 15.5601 18.814 15.5935 18.8734 15.653C18.9329 15.7124 18.9663 15.7931 18.9664 15.8771V16.8285ZM21.0278 13.023V16.8285H19.6007V15.8771C19.6004 15.6249 19.5001 15.3831 19.3217 15.2047C19.1434 15.0263 18.9015 14.926 18.6493 14.9257H17.6979C17.4457 14.926 17.2038 15.0263 17.0255 15.2047C16.8471 15.3831 16.7468 15.6249 16.7465 15.8771V16.8285H15.3194V13.023C15.3194 13.0145 15.3176 13.0065 15.3169 12.9982L18.1736 10.1415L21.0303 12.9982C21.0296 13.0065 21.0278 13.0145 21.0278 13.023Z" fill="#818181"/>
<path d="M2.31713 18.7314H2.63426C2.71837 18.7314 2.79903 18.698 2.8585 18.6385C2.91798 18.5791 2.95139 18.4984 2.95139 18.4143C2.95139 18.3302 2.91798 18.2495 2.8585 18.1901C2.79903 18.1306 2.71837 18.0972 2.63426 18.0972H2.31713C2.23302 18.0972 2.15236 18.1306 2.09289 18.1901C2.03341 18.2495 2 18.3302 2 18.4143C2 18.4984 2.03341 18.5791 2.09289 18.6385C2.15236 18.698 2.23302 18.7314 2.31713 18.7314Z" fill="#818181"/>
<path d="M12.4762 18.7314C12.5603 18.7314 12.6409 18.698 12.7004 18.6385C12.7599 18.5791 12.7933 18.4984 12.7933 18.4143C12.7933 18.3302 12.7599 18.2495 12.7004 18.1901C12.6409 18.1306 12.5603 18.0972 12.4762 18.0972H11.8201C11.736 18.0972 11.6553 18.1306 11.5958 18.1901C11.5363 18.2495 11.5029 18.3302 11.5029 18.4143C11.5029 18.4984 11.5363 18.5791 11.5958 18.6385C11.6553 18.698 11.736 18.7314 11.8201 18.7314H12.4762Z" fill="#818181"/>
<path d="M16.413 18.7314C16.4971 18.7314 16.5778 18.698 16.6372 18.6385C16.6967 18.5791 16.7301 18.4984 16.7301 18.4143C16.7301 18.3302 16.6967 18.2495 16.6372 18.1901C16.5778 18.1306 16.4971 18.0972 16.413 18.0972H15.7569C15.6728 18.0972 15.5921 18.1306 15.5326 18.1901C15.4732 18.2495 15.4398 18.3302 15.4398 18.4143C15.4398 18.4984 15.4732 18.5791 15.5326 18.6385C15.5921 18.698 15.6728 18.7314 15.7569 18.7314H16.413Z" fill="#818181"/>
<path d="M4.60262 18.7314C4.68673 18.7314 4.76739 18.698 4.82686 18.6385C4.88634 18.5791 4.91975 18.4984 4.91975 18.4143C4.91975 18.3302 4.88634 18.2495 4.82686 18.1901C4.76739 18.1306 4.68673 18.0972 4.60262 18.0972H3.94652C3.86242 18.0972 3.78175 18.1306 3.72228 18.1901C3.66281 18.2495 3.62939 18.3302 3.62939 18.4143C3.62939 18.4984 3.66281 18.5791 3.72228 18.6385C3.78175 18.698 3.86242 18.7314 3.94652 18.7314H4.60262Z" fill="#818181"/>
<path d="M14.4446 18.7314C14.5287 18.7314 14.6094 18.698 14.6689 18.6385C14.7283 18.5791 14.7617 18.4984 14.7617 18.4143C14.7617 18.3302 14.7283 18.2495 14.6689 18.1901C14.6094 18.1306 14.5287 18.0972 14.4446 18.0972H13.7884C13.7043 18.0972 13.6237 18.1306 13.5642 18.1901C13.5047 18.2495 13.4713 18.3302 13.4713 18.4143C13.4713 18.4984 13.5047 18.5791 13.5642 18.6385C13.6237 18.698 13.7043 18.7314 13.7884 18.7314H14.4446Z" fill="#818181"/>
<path d="M20.3498 18.7314C20.4339 18.7314 20.5146 18.698 20.574 18.6385C20.6335 18.5791 20.6669 18.4984 20.6669 18.4143C20.6669 18.3302 20.6335 18.2495 20.574 18.1901C20.5146 18.1306 20.4339 18.0972 20.3498 18.0972H19.6937C19.6096 18.0972 19.5289 18.1306 19.4694 18.1901C19.41 18.2495 19.3766 18.3302 19.3766 18.4143C19.3766 18.4984 19.41 18.5791 19.4694 18.6385C19.5289 18.698 19.6096 18.7314 19.6937 18.7314H20.3498Z" fill="#818181"/>
<path d="M18.3814 18.7314C18.4655 18.7314 18.5462 18.698 18.6057 18.6385C18.6652 18.5791 18.6986 18.4984 18.6986 18.4143C18.6986 18.3302 18.6652 18.2495 18.6057 18.1901C18.5462 18.1306 18.4655 18.0972 18.3814 18.0972H17.7253C17.6412 18.0972 17.5605 18.1306 17.501 18.1901C17.4416 18.2495 17.4081 18.3302 17.4081 18.4143C17.4081 18.4984 17.4416 18.5791 17.501 18.6385C17.5605 18.698 17.6412 18.7314 17.7253 18.7314H18.3814Z" fill="#818181"/>
<path d="M6.57102 18.7314C6.65513 18.7314 6.73579 18.698 6.79526 18.6385C6.85474 18.5791 6.88815 18.4984 6.88815 18.4143C6.88815 18.3302 6.85474 18.2495 6.79526 18.1901C6.73579 18.1306 6.65513 18.0972 6.57102 18.0972H5.91485C5.83074 18.0972 5.75008 18.1306 5.6906 18.1901C5.63113 18.2495 5.59772 18.3302 5.59772 18.4143C5.59772 18.4984 5.63113 18.5791 5.6906 18.6385C5.75008 18.698 5.83074 18.7314 5.91485 18.7314H6.57102Z" fill="#818181"/>
<path d="M8.53939 18.7314C8.62349 18.7314 8.70416 18.698 8.76363 18.6385C8.8231 18.5791 8.85651 18.4984 8.85651 18.4143C8.85651 18.3302 8.8231 18.2495 8.76363 18.1901C8.70416 18.1306 8.62349 18.0972 8.53939 18.0972H7.88329C7.79918 18.0972 7.71852 18.1306 7.65905 18.1901C7.59957 18.2495 7.56616 18.3302 7.56616 18.4143C7.56616 18.4984 7.59957 18.5791 7.65905 18.6385C7.71852 18.698 7.79918 18.7314 7.88329 18.7314H8.53939Z" fill="#818181"/>
<path d="M10.5078 18.7314C10.592 18.7314 10.6726 18.698 10.7321 18.6385C10.7916 18.5791 10.825 18.4984 10.825 18.4143C10.825 18.3302 10.7916 18.2495 10.7321 18.1901C10.6726 18.1306 10.592 18.0972 10.5078 18.0972H9.85168C9.76757 18.0972 9.6869 18.1306 9.62743 18.1901C9.56796 18.2495 9.53455 18.3302 9.53455 18.4143C9.53455 18.4984 9.56796 18.5791 9.62743 18.6385C9.6869 18.698 9.76757 18.7314 9.85168 18.7314H10.5078Z" fill="#818181"/>
<path d="M21.9792 18.0972H21.662C21.5779 18.0972 21.4973 18.1306 21.4378 18.1901C21.3783 18.2495 21.3449 18.3302 21.3449 18.4143C21.3449 18.4984 21.3783 18.5791 21.4378 18.6385C21.4973 18.698 21.5779 18.7314 21.662 18.7314H21.9792C22.0633 18.7314 22.1439 18.698 22.2034 18.6385C22.2629 18.5791 22.2963 18.4984 22.2963 18.4143C22.2963 18.3302 22.2629 18.2495 22.2034 18.1901C22.1439 18.1306 22.0633 18.0972 21.9792 18.0972Z" fill="#818181"/>
<path d="M21.9792 19.3657H2.31713C2.23302 19.3657 2.15236 19.3991 2.09289 19.4586C2.03341 19.5181 2 19.5987 2 19.6829C2 19.767 2.03341 19.8476 2.09289 19.9071C2.15236 19.9666 2.23302 20 2.31713 20H21.9792C22.0633 20 22.1439 19.9666 22.2034 19.9071C22.2629 19.8476 22.2963 19.767 22.2963 19.6829C22.2963 19.5987 22.2629 19.5181 22.2034 19.4586C22.1439 19.3991 22.0633 19.3657 21.9792 19.3657Z" fill="#818181"/>
</g>
<defs>
<clipPath id="clip0_2162_2779">
<rect width="24" height="24" fill="white"/>
</clipPath>
</defs>
</svg>
