<svg width="25" height="25" viewBox="0 0 25 25" fill="none" xmlns="http://www.w3.org/2000/svg">
<g id="briefcase">
<path id="Vector" d="M20.7733 7.83936H4.77332C3.66875 7.83936 2.77332 8.73479 2.77332 9.83936V19.8394C2.77332 20.9439 3.66875 21.8394 4.77332 21.8394H20.7733C21.8779 21.8394 22.7733 20.9439 22.7733 19.8394V9.83936C22.7733 8.73479 21.8779 7.83936 20.7733 7.83936Z" stroke="#818181" stroke-width="2" stroke-linecap="round" stroke-linejoin="round"/>
<path id="Vector_2" d="M16.7733 21.8394V5.83936C16.7733 5.30892 16.5626 4.80021 16.1875 4.42514C15.8125 4.05007 15.3037 3.83936 14.7733 3.83936H10.7733C10.2429 3.83936 9.73417 4.05007 9.3591 4.42514C8.98403 4.80021 8.77332 5.30892 8.77332 5.83936V21.8394" stroke="#818181" stroke-width="2" stroke-linecap="round" stroke-linejoin="round"/>
</g>
</svg>
