<svg width="24" height="24" viewBox="0 0 24 24" fill="none" xmlns="http://www.w3.org/2000/svg">
<circle cx="12" cy="12" r="9.125" stroke="#818181" stroke-width="1.75"/>
<path d="M9.00389 12.0078C7.89895 12.0078 7 11.1088 7 10.0039C7 8.89895 7.89895 8 9.00389 8C10.1088 8 11.0078 8.89895 11.0078 10.0039C11.0078 11.1088 10.1088 12.0078 9.00389 12.0078ZM9.00389 8.92059C8.40642 8.92059 7.92059 9.40643 7.92059 10.0039C7.92059 10.6013 8.40642 11.0872 9.00389 11.0872C9.60135 11.0872 10.0872 10.6013 10.0872 10.0039C10.0872 9.40666 9.60112 8.92059 9.00389 8.92059Z" fill="#818181"/>
<path d="M7.90999 16.9344C7.79906 16.9344 7.68767 16.8944 7.5993 16.8136C7.41173 16.6419 7.39907 16.3508 7.57053 16.1634L14.9097 8.14972C15.0814 7.96238 15.3725 7.94926 15.5598 8.12095C15.7472 8.29264 15.7601 8.58378 15.5884 8.77135L8.24946 16.785C8.15878 16.884 8.0345 16.9344 7.90999 16.9344Z" fill="#818181"/>
<path d="M14.3801 16.9343C13.2752 16.9343 12.3762 16.0353 12.3762 14.9304C12.3762 13.8255 13.2752 12.9265 14.3801 12.9265C15.485 12.9265 16.384 13.8255 16.384 14.9304C16.384 16.0353 15.485 16.9343 14.3801 16.9343ZM14.3801 13.8471C13.7826 13.8471 13.2968 14.3329 13.2968 14.9304C13.2968 15.5279 13.7826 16.0137 14.3801 16.0137C14.9776 16.0137 15.4634 15.5279 15.4634 14.9304C15.4634 14.3329 14.9776 13.8471 14.3801 13.8471Z" fill="#818181"/>
</svg>
