<svg width="28" height="28" viewBox="0 0 28 28" fill="none" xmlns="http://www.w3.org/2000/svg">
<path d="M12.25 11.9936C11.2073 11.9936 10.3542 11.6517 9.69061 10.9679C9.02707 10.284 8.6953 9.4048 8.6953 8.33019C8.6953 7.25558 9.02707 6.37636 9.69061 5.69251C10.3542 5.00867 11.2073 4.66675 12.25 4.66675C13.2927 4.66675 14.1458 5.00867 14.8094 5.69251C15.4729 6.37636 15.8047 7.25558 15.8047 8.33019C15.8047 9.4048 15.4729 10.284 14.8094 10.9679C14.1458 11.6517 13.2927 11.9936 12.25 11.9936ZM4.66666 19.8334V17.5377C4.66666 16.9189 4.81674 16.3898 5.11692 15.9502C5.41709 15.5105 5.80416 15.1768 6.27811 14.9488C7.33662 14.4604 8.35168 14.094 9.3233 13.8498C10.2949 13.6056 11.2705 13.4834 12.25 13.4834C13.2295 13.4834 14.2011 13.6096 15.1648 13.862C16.1285 14.1144 17.139 14.4782 18.1963 14.9536C18.6908 15.1836 19.0873 15.5171 19.3857 15.9541C19.6841 16.3911 19.8333 16.9189 19.8333 17.5377V19.8334H4.66666ZM6.08853 18.368H18.4114V17.5377C18.4114 17.2771 18.3364 17.0288 18.1863 16.7928C18.0362 16.5567 17.8506 16.3816 17.6294 16.2677C16.6183 15.7629 15.6941 15.4169 14.8568 15.2297C14.0194 15.0424 13.1505 14.9488 12.25 14.9488C11.3495 14.9488 10.4726 15.0424 9.61952 15.2297C8.7664 15.4169 7.84218 15.7629 6.84686 16.2677C6.62568 16.3816 6.444 16.5567 6.30181 16.7928C6.15963 17.0288 6.08853 17.2771 6.08853 17.5377V18.368ZM12.25 10.5283C12.8661 10.5283 13.3756 10.3207 13.7785 9.90548C14.1814 9.49029 14.3828 8.96519 14.3828 8.33019C14.3828 7.6952 14.1814 7.1701 13.7785 6.75491C13.3756 6.33972 12.8661 6.13213 12.25 6.13213C11.6338 6.13213 11.1243 6.33972 10.7215 6.75491C10.3186 7.1701 10.1172 7.6952 10.1172 8.33019C10.1172 8.96519 10.3186 9.49029 10.7215 9.90548C11.1243 10.3207 11.6338 10.5283 12.25 10.5283Z" fill="#818181"/>
<circle cx="20.4167" cy="18.0835" r="4.75" fill="white" stroke="#818181"/>
<path d="M18.2928 20L22.6464 15.6465" stroke="#818181"/>
<path d="M18.3535 15.6465L22.7071 20" stroke="#818181"/>
</svg>
