<svg width="17" height="17" viewBox="0 0 17 17" fill="none" xmlns="http://www.w3.org/2000/svg">
<g id="Layer 25">
<path id="checkmark-circle-2" d="M8.86118 0C7.26278 0 5.70028 0.473979 4.37126 1.362C3.04225 2.25002 2.0064 3.5122 1.39472 4.98892C0.783043 6.46565 0.622999 8.0906 0.934831 9.65828C1.24666 11.226 2.01636 12.666 3.1466 13.7962C4.27684 14.9264 5.71685 15.6961 7.28453 16.008C8.85221 16.3198 10.4772 16.1598 11.9539 15.5481C13.4306 14.9364 14.6928 13.9006 15.5808 12.5715C16.4688 11.2425 16.9428 9.68003 16.9428 8.08163C16.9428 7.02034 16.7338 5.96943 16.3276 4.98892C15.9215 4.00842 15.3262 3.1175 14.5758 2.36706C13.8253 1.61661 12.9344 1.02132 11.9539 0.615178C10.9734 0.209038 9.92247 0 8.86118 0ZM12.3363 6.15012L8.64297 10.9991C8.56769 11.0969 8.471 11.1762 8.36033 11.2308C8.24966 11.2854 8.12795 11.314 8.00452 11.3143C7.88177 11.3149 7.76048 11.2876 7.64985 11.2344C7.53923 11.1812 7.44218 11.1035 7.36608 11.0072L5.39416 8.4938C5.32889 8.40995 5.28077 8.31408 5.25255 8.21164C5.22434 8.1092 5.21657 8.00221 5.22971 7.89677C5.24284 7.79133 5.27661 7.68951 5.32909 7.59713C5.38158 7.50474 5.45174 7.4236 5.53559 7.35833C5.70491 7.22651 5.91967 7.16735 6.13261 7.19388C6.23805 7.20701 6.33987 7.24078 6.43225 7.29326C6.52464 7.34575 6.60579 7.41591 6.67105 7.49975L7.98836 9.18073L11.0432 5.13992C11.108 5.05501 11.1888 4.98369 11.2811 4.93003C11.3734 4.87636 11.4754 4.8414 11.5812 4.82714C11.687 4.81288 11.7946 4.81961 11.8978 4.84693C12.001 4.87425 12.0978 4.92163 12.1827 4.98637C12.2676 5.05111 12.339 5.13193 12.3926 5.22424C12.4463 5.31654 12.4812 5.41851 12.4955 5.52432C12.5098 5.63013 12.503 5.73772 12.4757 5.84093C12.4484 5.94415 12.401 6.04097 12.3363 6.12588V6.15012Z" fill="#FFDF58"/>
</g>
</svg>
